<svg xmlns="http://www.w3.org/2000/svg" viewBox="0 0 512 512">
  <rect width="512" height="512" rx="112" fill="#0b5fc9"/>
  <path fill="#fff" d="M118 179c0-34 28-62 62-62h153c34 0 62 28 62 62v154c0 34-28 62-62 62H180c-34 0-62-28-62-62V179Zm62-10c-6 0-10 4-10 10v154c0 6 4 10 10 10h153c6 0 10-4 10-10V179c0-6-4-10-10-10H180Z"/>
  <path fill="#d7e5ff" d="M151 236h210v48H151z"/>
  <path fill="#fff" d="M207 257a49 49 0 1 1 98 0 49 49 0 0 1-98 0Zm49-25c-14 0-25 11-25 25s11 25 25 25 25-11 25-25-11-25-25-25Z"/>
</svg>
